HIERARCHY
ROOT Hips
{
  OFFSET 13.6774 106.653 -34.4427
  CHANNELS 6 Xposition Yposition Zposition Zrotation Xrotation Yrotation
  JOINT ToSpine
  {
    OFFSET -2.69724 7.43032 -0.144315
    CHANNELS 3 Zrotation Xrotation Yrotation
    JOINT Spine
    {
      OFFSET -0.0310711 10.7595 1.96963
      CHANNELS 3 Zrotation Xrotation Yrotation
      JOINT Spine1
      {
        OFFSET 19.9056 3.91189 0.764692
        CHANNELS 3 Zrotation Xrotation Yrotation
        JOINT Neck
        {
          OFFSET 25.9749 7.03908 -0.130764
          CHANNELS 3 Zrotation Xrotation Yrotation
          JOINT Head
          {
            OFFSET 9.52751 0.295786 -0.907742
            CHANNELS 3 Zrotation Xrotation Yrotation
            End Site
            {
              OFFSET 16.4037 0.713936 2.7358
            }
          }
        }
        JOINT LeftShoulder
        {
          OFFSET 17.7449 4.33886 11.7777
          CHANNELS 3 Zrotation Xrotation Yrotation
          JOINT LeftArm
          {
            OFFSET 0.911315 1.27913 9.80584
            CHANNELS 3 Zrotation Xrotation Yrotation
            JOINT LeftForeArm
            {
              OFFSET 28.6126 1.18197 -3.53199
              CHANNELS 3 Zrotation Xrotation Yrotation
              JOINT LeftHand
              {
                OFFSET 27.5088 0.0218783 0.327423
                CHANNELS 3 Zrotation Xrotation Yrotation
                End Site
                {
                  OFFSET 18.6038 -0.000155887 0.382096
                }
              }
            }
          }
        }
        JOINT RightShoulder
        {
          OFFSET 17.1009 2.89543 -12.2328
          CHANNELS 3 Zrotation Xrotation Yrotation
          JOINT RightArm
          {
            OFFSET 1.4228 0.178766 -10.211
            CHANNELS 3 Zrotation Xrotation Yrotation
            JOINT RightForeArm
            {
              OFFSET 28.733 1.87905 2.64907
              CHANNELS 3 Zrotation Xrotation Yrotation
              JOINT RightHand
              {
                OFFSET 27.4588 0.290562 -0.101845
                CHANNELS 3 Zrotation Xrotation Yrotation
                End Site
                {
                  OFFSET 17.8396 -0.255518 -0.000602873
                }
              }
            }
          }
        }
      }
    }
  }
  JOINT LeftUpLeg
  {
    OFFSET -5.61296 -2.22332 -10.2353
    CHANNELS 3 Zrotation Xrotation Yrotation
    JOINT LeftLeg
    {
      OFFSET 2.56703 -44.7417 -7.93097
      CHANNELS 3 Zrotation Xrotation Yrotation
      JOINT LeftFoot
      {
        OFFSET 3.16933 -46.5642 -3.96578
        CHANNELS 3 Zrotation Xrotation Yrotation
        JOINT LeftToeBase
        {
          OFFSET 0.346054 -6.02161 12.8035
          CHANNELS 3 Zrotation Xrotation Yrotation
          End Site
          {
            OFFSET 0.134235 -1.35082 5.13018
          }
        }
      }
    }
  }
  JOINT RightUpLeg
  {
    OFFSET -5.7928 -1.72406 10.6446
    CHANNELS 3 Zrotation Xrotation Yrotation
    JOINT RightLeg
    {
      OFFSET -2.57161 -44.7178 -7.85259
      CHANNELS 3 Zrotation Xrotation Yrotation
      JOINT RightFoot
      {
        OFFSET -3.10148 -46.5936 -4.03391
        CHANNELS 3 Zrotation Xrotation Yrotation
        JOINT RightToeBase
        {
          OFFSET -0.0828122 -6.13587 12.8035
          CHANNELS 3 Zrotation Xrotation Yrotation
          End Site
          {
            OFFSET -0.131328 -1.35082 5.13018
          }
        }
      }
    }
  }
}
MOTION
Frames: 8
Frame Time: 0.03333333333333333
0.0000 93.1000 0.0000 73.0259 -25.7306 -0.9283 -71.3596 0.1412 88.0905 105.2344 73.1499 -21.0640 1.7692 20.8136 10.8505 -124.9838 33.0330 158.6004 161.1696 74.5172 -130.6429 1.3180 -7.4147 -16.8014 -55.3384 34.6398 -108.5421 6.0678 -5.9956 -126.2940 -0.3081 -0.4902 0.2450 -2.5340 5.3340 45.6375 -101.7774 -3.0894 74.2083 4.1711 -6.6717 36.0424 -0.7619 -0.1253 -0.3992 -36.9630 19.1279 89.9171 -9.8778 67.2342 -4.3268 0.0151 -23.5523 -1.2531 6.0468 -15.0491 17.8800 -41.3574 -22.7756 76.6833 1.1166 36.6187 -3.8180 -1.2376 6.4922 -1.1420 0.6893 -12.1673 2.6793 
0.0000 93.1000 0.0000 74.2620 -26.1977 -0.9445 -71.3141 0.5450 87.9444 105.6911 73.6182 -21.1294 1.8779 20.9626 11.1901 -124.7651 32.9092 158.1397 160.8450 75.0032 -131.3034 1.5417 -7.2046 -16.8558 -55.1944 35.4997 -109.2525 5.8392 -5.1679 -126.2991 -0.1724 -0.4483 -0.0864 -2.2002 5.3843 45.7908 -100.8926 -2.7674 74.9260 4.3774 -6.9939 35.7862 -0.3624 -0.1219 0.1164 -37.0282 19.0309 89.7233 -10.2953 68.1085 -5.1957 -0.0044 -21.7631 -1.5102 6.4507 -16.2854 20.1229 -42.2951 -23.0741 76.0215 1.1236 36.0834 -3.9844 -1.1512 6.5003 -0.6860 0.7138 -11.3993 3.1002 
0.0000 93.1000 0.0000 73.9925 -26.4130 -0.9204 -71.3469 0.1866 87.9413 106.8442 73.3199 -20.4876 2.2789 20.9229 11.1958 -125.4420 33.0006 157.7165 161.5167 74.9214 -132.0794 1.3594 -7.2145 -16.5163 -54.1466 35.5502 -109.4455 5.9313 -4.0658 -125.2523 -0.1680 -0.3711 0.1377 -2.3606 5.1744 45.9064 -100.4515 -2.6243 74.4481 4.8458 -7.0437 36.9577 -0.2537 -0.2565 -0.1011 -36.4598 18.9426 89.7569 -9.9612 68.5037 -4.8663 0.3672 -22.3598 -1.4770 6.3893 -16.1534 19.9865 -42.3787 -23.2041 76.9652 1.3357 36.0006 -3.1799 -0.3670 6.4153 -1.2086 0.9445 -11.8192 2.3166 
0.0000 93.1000 0.0000 74.2172 -26.3236 -2.1976 -71.3489 0.2952 88.0792 105.0368 73.6813 -19.1171 2.9365 20.9351 11.0146 -125.0101 32.9876 157.4198 161.6560 75.1310 -132.2501 1.4929 -7.4202 -17.1691 -53.9613 35.0860 -110.4863 5.0318 -4.9084 -125.2069 -0.0012 -0.3448 0.0783 -2.1874 5.0314 46.0510 -100.8484 -1.7171 74.2806 4.5610 -6.9448 36.4928 -0.2390 -0.3200 -0.2698 -36.5761 19.0422 90.2214 -10.2018 68.2903 -6.0642 0.4190 -22.3379 -1.6656 6.7701 -16.7879 20.6190 -42.0527 -23.0149 77.2676 0.1756 36.0204 -3.8271 -0.9501 6.0201 -0.9069 0.9095 -12.0538 2.3842 
0.0000 93.1000 0.0000 73.9649 -25.8870 -1.6338 -71.2599 -0.4674 88.0769 104.8705 73.6966 -19.4741 2.6334 21.2456 9.8997 -125.9585 32.8783 156.4820 162.3905 75.6639 -132.8439 0.9337 -8.0683 -17.0313 -53.6247 34.9780 -110.5413 3.6457 -4.0205 -125.0658 -0.2753 -0.0325 0.5154 -2.4285 5.3809 45.8295 -101.5211 -1.1720 74.4374 4.3186 -7.5409 38.1533 -0.6625 -0.7605 -0.5698 -36.8099 18.8747 90.9463 -9.5373 68.0869 -4.5127 0.1803 -22.9012 -1.6180 6.3118 -15.4329 19.1405 -41.9786 -23.2187 77.8183 -0.1180 36.3966 -4.8131 -1.1087 5.1689 -1.3912 0.8890 -11.4462 2.5446 
0.0000 93.1000 0.0000 73.8714 -26.0738 -2.5483 -71.1692 -0.4356 88.1307 104.6124 73.5096 -20.2533 2.3815 21.1355 10.0866 -124.7634 33.1989 155.0432 166.4351 76.0138 -133.8852 0.9328 -8.3731 -16.9082 -53.1577 34.8999 -112.4068 3.7517 -3.3116 -123.8470 -0.5365 -0.2251 0.2694 -2.5244 5.6229 45.9907 -102.3431 -1.1335 73.9415 5.2401 -8.5588 41.0920 -0.4966 -0.5307 -0.6858 -36.8293 19.1776 91.0133 -9.9840 67.8390 -5.7070 0.6632 -22.8710 -1.4625 6.5548 -15.9261 19.0988 -41.4292 -23.0023 79.0957 -0.0656 36.9796 -4.7668 -0.2403 6.0253 -1.4357 0.6097 -12.9833 2.6894 
0.0000 93.1000 0.0000 74.2329 -25.9494 -1.9209 -71.2343 -0.5161 88.0427 104.5472 73.8874 -20.7463 2.3410 20.9984 10.7450 -124.7624 33.0101 156.3099 163.9403 76.1080 -132.1620 0.7621 -8.1273 -16.7963 -52.6811 34.5127 -113.4709 4.1674 -3.5155 -121.8478 -0.4144 0.1820 0.4575 -2.2593 5.3604 45.8241 -104.4381 -0.2305 73.1579 6.1562 -8.6773 44.9971 -0.2449 -1.0271 -0.4436 -37.1746 19.0263 91.0085 -10.6267 67.7082 -7.0121 0.2274 -22.0400 -1.7410 6.8224 -17.0202 21.1827 -39.9746 -22.6988 80.6341 0.9439 38.7215 -3.6262 -1.3691 6.9504 -1.0425 0.5810 -14.3250 3.5413 
0.0000 93.1000 0.0000 73.9846 -26.2281 -2.1069 -71.1923 -0.5242 88.1745 104.8689 73.6829 -20.9001 2.1433 20.7963 11.4064 -124.0185 33.8468 157.0243 162.5457 75.2783 -129.9369 0.7605 -8.6923 -17.1597 -53.2188 33.7310 -117.2132 5.0197 -3.9148 -117.8938 -0.2432 0.0291 0.2757 -2.3987 5.4233 45.1104 -107.7880 -0.3934 74.1884 6.4854 -7.0736 49.7961 -0.5209 -0.8763 -0.7390 -37.7188 19.9038 91.0635 -10.2376 67.3923 -5.2728 -0.4295 -21.5456 -1.5091 6.7358 -17.2004 20.4283 -37.3418 -22.5697 82.9478 0.9695 42.6279 0.5909 -1.7854 7.5268 -1.1117 0.6454 -15.6685 1.9715 
